<mxfile host="app.diagrams.net" agent="Mozilla/5.0 (X11; Ubuntu; Linux x86_64; rv:142.0) Gecko/20100101 Firefox/142.0" version="28.1.1">
  <diagram name="Page-1" id="N3k2XmsSEdom79UYtw2Z">
    <mxGraphModel dx="1426" dy="826" grid="1" gridSize="10" guides="1" tooltips="1" connect="1" arrows="1" fold="1" page="1" pageScale="1" pageWidth="827" pageHeight="1169" math="0" shadow="0">
      <root>
        <mxCell id="0" />
        <mxCell id="1" parent="0" />
        <mxCell id="aZrvP0ykuO1SMqynMy-k-1" value="" style="whiteSpace=wrap;html=1;aspect=fixed;" vertex="1" parent="1">
          <mxGeometry x="80" y="130" width="470" height="470" as="geometry" />
        </mxCell>
        <mxCell id="aZrvP0ykuO1SMqynMy-k-4" value="Replic-Viewing" style="text;html=1;align=center;verticalAlign=middle;whiteSpace=wrap;rounded=0;" vertex="1" parent="1">
          <mxGeometry x="80" y="130" width="100" height="30" as="geometry" />
        </mxCell>
        <mxCell id="aZrvP0ykuO1SMqynMy-k-6" value="Observe description, original link, target link, QR-Code" style="ellipse;whiteSpace=wrap;html=1;spacingLeft=2;spacingRight=2;" vertex="1" parent="1">
          <mxGeometry x="170" y="280" width="150" height="90" as="geometry" />
        </mxCell>
        <mxCell id="aZrvP0ykuO1SMqynMy-k-8" style="rounded=0;orthogonalLoop=1;jettySize=auto;html=1;endArrow=none;endFill=0;" edge="1" parent="1" source="aZrvP0ykuO1SMqynMy-k-7" target="aZrvP0ykuO1SMqynMy-k-6">
          <mxGeometry relative="1" as="geometry" />
        </mxCell>
        <mxCell id="aZrvP0ykuO1SMqynMy-k-10" style="rounded=0;orthogonalLoop=1;jettySize=auto;html=1;endArrow=none;endFill=0;" edge="1" parent="1" source="aZrvP0ykuO1SMqynMy-k-7" target="aZrvP0ykuO1SMqynMy-k-9">
          <mxGeometry relative="1" as="geometry" />
        </mxCell>
        <mxCell id="aZrvP0ykuO1SMqynMy-k-12" style="rounded=0;orthogonalLoop=1;jettySize=auto;html=1;endArrow=none;endFill=0;" edge="1" parent="1" source="aZrvP0ykuO1SMqynMy-k-7" target="aZrvP0ykuO1SMqynMy-k-11">
          <mxGeometry relative="1" as="geometry" />
        </mxCell>
        <mxCell id="aZrvP0ykuO1SMqynMy-k-14" style="rounded=0;orthogonalLoop=1;jettySize=auto;html=1;endArrow=none;endFill=0;" edge="1" parent="1" source="aZrvP0ykuO1SMqynMy-k-7" target="aZrvP0ykuO1SMqynMy-k-13">
          <mxGeometry relative="1" as="geometry" />
        </mxCell>
        <mxCell id="aZrvP0ykuO1SMqynMy-k-7" value="User" style="shape=umlActor;verticalLabelPosition=bottom;verticalAlign=top;html=1;" vertex="1" parent="1">
          <mxGeometry x="670" y="360" width="30" height="60" as="geometry" />
        </mxCell>
        <mxCell id="aZrvP0ykuO1SMqynMy-k-9" value="Copy original link, copy target link" style="ellipse;whiteSpace=wrap;html=1;spacingLeft=2;spacingRight=2;" vertex="1" parent="1">
          <mxGeometry x="290" y="180" width="150" height="80" as="geometry" />
        </mxCell>
        <mxCell id="aZrvP0ykuO1SMqynMy-k-11" value="Open target link" style="ellipse;whiteSpace=wrap;html=1;spacingLeft=2;spacingRight=2;" vertex="1" parent="1">
          <mxGeometry x="200" y="430" width="110" height="50" as="geometry" />
        </mxCell>
        <mxCell id="aZrvP0ykuO1SMqynMy-k-13" value="Report replic" style="ellipse;whiteSpace=wrap;html=1;spacingLeft=2;spacingRight=2;" vertex="1" parent="1">
          <mxGeometry x="280" y="510" width="110" height="50" as="geometry" />
        </mxCell>
      </root>
    </mxGraphModel>
  </diagram>
</mxfile>
